<svg width="69" height="50" viewBox="0 0 69 50" fill="none" xmlns="http://www.w3.org/2000/svg">
<path d="M14 41V31.2277M14 31.2277V20L21.2553 27.2772L14 31.2277ZM14 31.2277L25 41" stroke="#6C5555" stroke-opacity="0.85" stroke-width="3" stroke-linecap="round"/>
<path d="M15 2L2 13" stroke="#685151" stroke-opacity="0.5" stroke-width="3" stroke-linecap="round"/>
<path d="M15 12L8 18" stroke="#685151" stroke-opacity="0.5" stroke-width="3" stroke-linecap="round"/>
<path d="M36.3301 24.1055V38.8008C36.3301 39.3164 36.2656 39.791 36.1367 40.2246C36.0078 40.6582 35.8145 41.0332 35.5566 41.3496C35.2988 41.666 34.9766 41.9121 34.5898 42.0879C34.2148 42.2637 33.7754 42.3516 33.2715 42.3516C32.7676 42.3516 32.3223 42.2695 31.9355 42.1055C31.5605 41.9531 31.2441 41.7363 30.9863 41.4551C30.7402 41.1621 30.5527 40.8223 30.4238 40.4355C30.2949 40.0371 30.2305 39.6035 30.2305 39.1348V24.1055H31.5488V39.2402C31.5488 39.7793 31.6953 40.2363 31.9883 40.6113C32.293 40.9863 32.7266 41.1738 33.2891 41.1738C33.8398 41.1738 34.2617 40.9629 34.5547 40.541C34.8594 40.1074 35.0117 39.5859 35.0117 38.9766V24.1055H36.3301ZM48.4027 42H47.0844V27.2168C47.0844 26.6777 46.932 26.2207 46.6273 25.8457C46.3344 25.4707 45.9125 25.2832 45.3617 25.2832H43.6215V42H42.3031V24.1055H45.3617C45.8539 24.1055 46.2875 24.1875 46.6625 24.3516C47.0492 24.5039 47.3715 24.7266 47.6293 25.0195C47.8871 25.3008 48.0805 25.6406 48.2094 26.0391C48.3383 26.4258 48.4027 26.8477 48.4027 27.3047V42ZM57.2586 25.2832C56.6961 25.2832 56.2625 25.4707 55.9578 25.8457C55.6648 26.2207 55.5184 26.6777 55.5184 27.2168V33.4219H57.2586C57.8094 33.4219 58.2313 33.2402 58.5242 32.877C58.8289 32.5137 58.9813 32.0566 58.9813 31.5059V25.2832H57.2586ZM60.2996 24.1055V31.3828C60.2996 31.8516 60.2352 32.2852 60.1063 32.6836C59.9773 33.0703 59.784 33.4102 59.5262 33.7031C59.2684 33.9844 58.9461 34.207 58.5594 34.3711C58.1844 34.5234 57.7508 34.5996 57.2586 34.5996H55.5184V39.2578C55.5184 39.7969 55.6648 40.2539 55.9578 40.6289C56.2625 40.9922 56.6961 41.1738 57.2586 41.1738C57.8094 41.1738 58.2313 40.9629 58.5242 40.541C58.8289 40.1191 58.9813 39.6035 58.9813 38.9941L60.282 38.8008C60.282 39.3047 60.2176 39.7734 60.0887 40.207C59.9598 40.6406 59.7664 41.0156 59.5086 41.332C59.2625 41.6484 58.9461 41.8945 58.5594 42.0703C58.1844 42.2578 57.7508 42.3516 57.2586 42.3516C56.7547 42.3516 56.3094 42.2695 55.9227 42.1055C55.5477 41.9414 55.2313 41.7188 54.9734 41.4375C54.7156 41.1445 54.5223 40.8047 54.3934 40.418C54.2645 40.0195 54.2 39.5918 54.2 39.1348V27.3223C54.2 26.8535 54.2645 26.4258 54.3934 26.0391C54.5223 25.6406 54.7156 25.3008 54.9734 25.0195C55.2313 24.7266 55.5477 24.5039 55.9227 24.3516C56.3094 24.1875 56.7547 24.1055 57.2586 24.1055H60.2996Z" fill="#685151" fill-opacity="0.5"/>
</svg>
