<svg width="376" height="568" viewBox="0 0 376 568" fill="none" xmlns="http://www.w3.org/2000/svg">
<rect x="259.568" y="504.272" width="39.6674" height="10.7043" fill="white" stroke="black" stroke-width="2"/>
<path d="M308.587 178.86H250.909C250.205 178.86 249.503 178.785 248.814 178.638L244.556 177.726C243.86 177.577 243.212 177.259 242.667 176.801C240.837 175.262 240.591 172.534 242.117 170.693L242.687 170.005C243.219 169.364 243.896 168.858 244.662 168.53L249.85 166.307V128.266C249.85 127.019 250.083 125.783 250.538 124.622L298.905 1L262.12 150.868C261.728 152.465 260.948 153.94 259.85 155.164L249.85 166.307H308.587C312.053 166.307 314.863 169.117 314.863 172.583C314.863 176.05 312.053 178.86 308.587 178.86Z" fill="white"/>
<path d="M249.85 166.307H308.587C312.053 166.307 314.863 169.117 314.863 172.583V172.583C314.863 176.05 312.053 178.86 308.587 178.86H250.909C250.205 178.86 249.503 178.785 248.814 178.638L244.556 177.726C243.86 177.577 243.212 177.259 242.667 176.801V176.801C240.837 175.262 240.591 172.534 242.117 170.693L242.687 170.005C243.219 169.364 243.896 168.858 244.662 168.53L249.85 166.307ZM249.85 166.307V128.266C249.85 127.019 250.083 125.783 250.538 124.622L298.905 1L262.12 150.868C261.728 152.465 260.948 153.94 259.85 155.164L249.85 166.307Z" stroke="black" stroke-width="2"/>
<path d="M209.111 205.057L250.589 179.011L239.943 200.408L148.341 307.869L209.111 205.057Z" fill="white" stroke="black" stroke-width="2"/>
<g filter="url(#filter0_f_56_33)">
<path d="M250.293 167.337L252.4 169.532L253.529 173.142L252.547 176.287L250.754 179.118" stroke="black" stroke-opacity="0.7"/>
</g>
<g filter="url(#filter1_f_56_33)">
<path d="M249.111 177.801L251.543 171.999L283.302 173.041L306.552 171.999L313.238 168.727V177.801H249.111Z" fill="black" fill-opacity="0.1"/>
<path d="M249.111 177.801L251.543 171.999L283.302 173.041L306.552 171.999L313.238 168.727V177.801H249.111Z" stroke="#76B982" stroke-opacity="0.1"/>
</g>
<path d="M310.874 179.011H251.475L258.915 182.036H305.062L310.874 179.011Z" fill="white" stroke="black" stroke-width="2"/>
<path d="M264.091 183.141H298.257V186.678H264.091V183.141Z" fill="white" fill-opacity="0.7" stroke="black"/>
<rect x="263.296" y="182.338" width="35.4616" height="1.51241" fill="white"/>
<rect x="263.674" y="182.716" width="34.7054" height="0.756207" stroke="black" stroke-opacity="0.5" stroke-width="0.756207"/>
<path d="M263.887 503.272L271.039 187.178H288.921L294.62 503.272H263.887Z" fill="white" fill-opacity="0.745098" stroke="black" stroke-width="2"/>
<path d="M279.217 219.5L251.771 179.011L279.217 191.858L375 282.763L279.217 219.5Z" fill="white" stroke="black" stroke-width="2"/>
<g filter="url(#filter2_f_56_33)">
<path d="M288.119 227.106L277.924 220.3L282.209 502.668H293.586L288.119 227.106Z" fill="black" fill-opacity="0.2"/>
<path d="M288.119 227.106L277.924 220.3L282.209 502.668H293.586L288.119 227.106Z" stroke="#76B982" stroke-opacity="0.1"/>
</g>
<rect x="76.4055" y="560.046" width="26.1265" height="6.57568" fill="white" stroke="black" stroke-width="2"/>
<path d="M109.169 340.059H70.5801C69.876 340.059 69.1738 339.985 68.4853 339.838L65.9474 339.294C65.4777 339.193 65.0399 338.979 64.6723 338.67C63.4366 337.631 63.2709 335.79 64.3012 334.547L64.6859 334.083C65.0449 333.649 65.5018 333.308 66.0189 333.086L69.5209 331.586V306.52C69.5209 305.274 69.7541 304.038 70.2084 302.877L102.634 220L77.9972 320.374C77.6054 321.971 76.8259 323.446 75.7279 324.67L69.5209 331.586H109.169C111.509 331.586 113.406 333.483 113.406 335.823C113.406 338.163 111.509 340.059 109.169 340.059Z" fill="white"/>
<path d="M69.5209 331.586H109.169C111.509 331.586 113.406 333.483 113.406 335.823V335.823C113.406 338.163 111.509 340.059 109.169 340.059H70.5801C69.876 340.059 69.1738 339.985 68.4853 339.838L65.9474 339.294C65.4777 339.193 65.0399 338.979 64.6723 338.67V338.67C63.4366 337.631 63.2709 335.79 64.3012 334.547L64.6859 334.083C65.0449 333.649 65.5018 333.308 66.0189 333.086L69.5209 331.586ZM69.5209 331.586V306.52C69.5209 305.274 69.7541 304.038 70.2084 302.877L102.634 220L77.9972 320.374C77.6054 321.971 76.8259 323.446 75.7279 324.67L69.5209 331.586Z" stroke="black" stroke-width="2"/>
<path d="M42.0211 357.743L70.0196 340.162L62.8335 354.605L1 427.143L42.0211 357.743Z" fill="white" stroke="black" stroke-width="2"/>
<g filter="url(#filter3_f_56_33)">
<path d="M69.8201 332.281L71.2421 333.763L72.0041 336.2L71.3414 338.322L70.1308 340.234" stroke="black" stroke-opacity="0.7"/>
</g>
<g filter="url(#filter4_f_56_33)">
<path d="M69.022 339.345L70.6632 335.429L92.1014 336.131L107.795 335.429L112.309 333.219V339.345H69.022Z" fill="black" fill-opacity="0.1"/>
<path d="M69.022 339.345L70.6632 335.429L92.1014 336.131L107.795 335.429L112.309 333.219V339.345H69.022Z" stroke="#76B982" stroke-opacity="0.1"/>
</g>
<path d="M110.713 340.162H70.6179L75.6396 342.203H106.79L110.713 340.162Z" fill="white" stroke="black"/>
<path d="M79.2966 343.112H102.035V345.175H79.2966V343.112Z" fill="white" fill-opacity="0.7" stroke="black"/>
<rect x="78.5972" y="342.408" width="23.9374" height="1.02091" fill="white"/>
<rect x="78.8524" y="342.663" width="23.427" height="0.510457" stroke="black" stroke-opacity="0.5" stroke-width="0.510457"/>
<path d="M78.9961 559.046L83.8242 345.675H95.8945L99.7419 559.046H78.9961Z" fill="white" fill-opacity="0.745098" stroke="black" stroke-width="2"/>
<path d="M89.3444 367.492L70.8174 340.162L89.3444 348.834L154 410.196L89.3444 367.492Z" fill="white" stroke="black" stroke-width="2"/>
<g filter="url(#filter5_f_56_33)">
<path d="M95.3534 372.627L88.4714 368.032L91.3639 558.637H99.0438L95.3534 372.627Z" fill="black" fill-opacity="0.2"/>
<path d="M95.3534 372.627L88.4714 368.032L91.3639 558.637H99.0438L95.3534 372.627Z" stroke="#76B982" stroke-opacity="0.1"/>
</g>
<defs>
<filter id="filter0_f_56_33" x="245.932" y="162.991" width="12.1201" height="20.3947" filterUnits="userSpaceOnUse" color-interpolation-filters="sRGB">
<feFlood flood-opacity="0" result="BackgroundImageFix"/>
<feBlend mode="normal" in="SourceGraphic" in2="BackgroundImageFix" result="shape"/>
<feGaussianBlur stdDeviation="2" result="effect1_foregroundBlur_56_33"/>
</filter>
<filter id="filter1_f_56_33" x="244.36" y="163.925" width="73.3782" height="18.3759" filterUnits="userSpaceOnUse" color-interpolation-filters="sRGB">
<feFlood flood-opacity="0" result="BackgroundImageFix"/>
<feBlend mode="normal" in="SourceGraphic" in2="BackgroundImageFix" result="shape"/>
<feGaussianBlur stdDeviation="2" result="effect1_foregroundBlur_56_33"/>
</filter>
<filter id="filter2_f_56_33" x="273.409" y="215.355" width="24.6865" height="291.812" filterUnits="userSpaceOnUse" color-interpolation-filters="sRGB">
<feFlood flood-opacity="0" result="BackgroundImageFix"/>
<feBlend mode="normal" in="SourceGraphic" in2="BackgroundImageFix" result="shape"/>
<feGaussianBlur stdDeviation="2" result="effect1_foregroundBlur_56_33"/>
</filter>
<filter id="filter3_f_56_33" x="65.4592" y="327.935" width="11.0686" height="16.566" filterUnits="userSpaceOnUse" color-interpolation-filters="sRGB">
<feFlood flood-opacity="0" result="BackgroundImageFix"/>
<feBlend mode="normal" in="SourceGraphic" in2="BackgroundImageFix" result="shape"/>
<feGaussianBlur stdDeviation="2" result="effect1_foregroundBlur_56_33"/>
</filter>
<filter id="filter4_f_56_33" x="64.2703" y="328.418" width="52.5386" height="15.4269" filterUnits="userSpaceOnUse" color-interpolation-filters="sRGB">
<feFlood flood-opacity="0" result="BackgroundImageFix"/>
<feBlend mode="normal" in="SourceGraphic" in2="BackgroundImageFix" result="shape"/>
<feGaussianBlur stdDeviation="2" result="effect1_foregroundBlur_56_33"/>
</filter>
<filter id="filter5_f_56_33" x="83.957" y="363.088" width="19.5967" height="200.049" filterUnits="userSpaceOnUse" color-interpolation-filters="sRGB">
<feFlood flood-opacity="0" result="BackgroundImageFix"/>
<feBlend mode="normal" in="SourceGraphic" in2="BackgroundImageFix" result="shape"/>
<feGaussianBlur stdDeviation="2" result="effect1_foregroundBlur_56_33"/>
</filter>
</defs>
</svg>
