<svg width="88" height="71" viewBox="0 0 88 71" fill="none" xmlns="http://www.w3.org/2000/svg">
<path d="M15 64V40.5M15 40.5V5L38.5 33.5L15 40.5ZM15 40.5L38.5 64" stroke="#7E6D6D" stroke-width="3" stroke-linecap="round"/>
<path d="M15 14.5L2 25.5" stroke="#644C4C" stroke-width="3" stroke-linecap="round"/>
<path d="M15 28.5L8 34.5" stroke="#685151" stroke-width="3" stroke-linecap="round"/>
<path d="M15 64.5L34.3868 42.165C35.5992 40.7682 37.7745 40.7906 38.9579 42.212L46 50.6702" stroke="#685151" stroke-width="3" stroke-linecap="round"/>
<path d="M32 46.5L39 55" stroke="#685151" stroke-width="3"/>
<path d="M55.3301 44.6055V59.3008C55.3301 59.8164 55.2656 60.291 55.1367 60.7246C55.0078 61.1582 54.8145 61.5332 54.5566 61.8496C54.2988 62.166 53.9766 62.4121 53.5898 62.5879C53.2148 62.7637 52.7754 62.8516 52.2715 62.8516C51.7676 62.8516 51.3223 62.7695 50.9355 62.6055C50.5605 62.4531 50.2441 62.2363 49.9863 61.9551C49.7402 61.6621 49.5527 61.3223 49.4238 60.9355C49.2949 60.5371 49.2305 60.1035 49.2305 59.6348V44.6055H50.5488V59.7402C50.5488 60.2793 50.6953 60.7363 50.9883 61.1113C51.293 61.4863 51.7266 61.6738 52.2891 61.6738C52.8398 61.6738 53.2617 61.4629 53.5547 61.041C53.8594 60.6074 54.0117 60.0859 54.0117 59.4766V44.6055H55.3301ZM71.0027 62.5H69.6844V47.7168C69.6844 47.1777 69.532 46.7207 69.2273 46.3457C68.9344 45.9707 68.5125 45.7832 67.9617 45.7832H66.2215V62.5H64.9031V44.6055H67.9617C68.4539 44.6055 68.8875 44.6875 69.2625 44.8516C69.6492 45.0039 69.9715 45.2266 70.2293 45.5195C70.4871 45.8008 70.6805 46.1406 70.8094 46.5391C70.9383 46.9258 71.0027 47.3477 71.0027 47.8047V62.5ZM83.4586 45.7832C82.8961 45.7832 82.4625 45.9707 82.1578 46.3457C81.8648 46.7207 81.7184 47.1777 81.7184 47.7168V53.9219H83.4586C84.0094 53.9219 84.4312 53.7402 84.7242 53.377C85.0289 53.0137 85.1812 52.5566 85.1812 52.0059V45.7832H83.4586ZM86.4996 44.6055V51.8828C86.4996 52.3516 86.4352 52.7852 86.3062 53.1836C86.1773 53.5703 85.984 53.9102 85.7262 54.2031C85.4684 54.4844 85.1461 54.707 84.7594 54.8711C84.3844 55.0234 83.9508 55.0996 83.4586 55.0996H81.7184V59.7578C81.7184 60.2969 81.8648 60.7539 82.1578 61.1289C82.4625 61.4922 82.8961 61.6738 83.4586 61.6738C84.0094 61.6738 84.4312 61.4629 84.7242 61.041C85.0289 60.6191 85.1812 60.1035 85.1812 59.4941L86.482 59.3008C86.482 59.8047 86.4176 60.2734 86.2887 60.707C86.1598 61.1406 85.9664 61.5156 85.7086 61.832C85.4625 62.1484 85.1461 62.3945 84.7594 62.5703C84.3844 62.7578 83.9508 62.8516 83.4586 62.8516C82.9547 62.8516 82.5094 62.7695 82.1227 62.6055C81.7477 62.4414 81.4312 62.2188 81.1734 61.9375C80.9156 61.6445 80.7223 61.3047 80.5934 60.918C80.4645 60.5195 80.4 60.0918 80.4 59.6348V47.8223C80.4 47.3535 80.4645 46.9258 80.5934 46.5391C80.7223 46.1406 80.9156 45.8008 81.1734 45.5195C81.4312 45.2266 81.7477 45.0039 82.1227 44.8516C82.5094 44.6875 82.9547 44.6055 83.4586 44.6055H86.4996Z" fill="#7E6D6D"/>
</svg>
