<svg width="261" height="72" viewBox="0 0 261 72" fill="none" xmlns="http://www.w3.org/2000/svg">
<path d="M34.3125 21.7307C-24.7231 33.5295 66.7132 69.2155 34.3151 60.4179C1.91708 51.6202 -2.62959 40.0882 11.7993 7.95916C28.3126 -7.86008 55.609 17.1422 63.8347 33.5357C50.7127 40.0919 40.2177 45.3368 34.3125 21.7307Z" fill="#76B982"/>
<path d="M79.8001 58V13.2H97.8801C99.0961 13.2 100.397 13.3173 101.784 13.552C103.192 13.7867 104.557 14.1813 105.88 14.736C107.203 15.2907 108.397 16.0693 109.464 17.072C110.552 18.0533 111.416 19.3013 112.056 20.816C112.717 22.3307 113.048 24.1653 113.048 26.32C113.048 28.688 112.685 30.6827 111.96 32.304C111.235 33.904 110.285 35.2053 109.112 36.208C107.96 37.2107 106.68 37.9787 105.272 38.512C103.885 39.0453 102.499 39.408 101.112 39.6C99.7254 39.7707 98.4881 39.856 97.4001 39.856H90.3601V58H79.8001ZM102.616 58L94.8721 37.104L105.208 36.016L113.816 58H102.616ZM90.3601 32.496H95.6401C97.0054 32.496 98.2001 32.304 99.2241 31.92C100.248 31.536 101.048 30.9173 101.624 30.064C102.221 29.2107 102.52 28.0693 102.52 26.64C102.52 25.1253 102.221 23.9627 101.624 23.152C101.048 22.32 100.237 21.744 99.1921 21.424C98.1467 21.0827 96.9414 20.912 95.5761 20.912H90.3601V32.496ZM143.889 58.704C141.606 58.704 139.441 58.4053 137.393 57.808C135.366 57.2107 133.553 56.24 131.953 54.896C130.374 53.552 129.126 51.7707 128.209 49.552C127.313 47.3333 126.865 44.6027 126.865 41.36V13.2H137.425V40.912C137.425 43.28 137.67 45.1787 138.161 46.608C138.673 48.016 139.409 49.04 140.369 49.68C141.329 50.2987 142.502 50.608 143.889 50.608C145.276 50.608 146.438 50.2987 147.377 49.68C148.337 49.04 149.062 48.016 149.553 46.608C150.044 45.1787 150.289 43.28 150.289 40.912V13.2H160.849V41.36C160.849 44.6027 160.401 47.3333 159.505 49.552C158.609 51.7707 157.372 53.552 155.793 54.896C154.236 56.24 152.433 57.2107 150.385 57.808C148.358 58.4053 146.193 58.704 143.889 58.704ZM174.154 58V13.2H189.802L200.97 49.296H198.954V13.2H209.514V58H196.202L184.298 22.032H184.714V58H174.154ZM225.059 58V13.2H255.523V20.912H235.619V32.176H253.283V39.792H235.619V50.288H255.523V58H225.059Z" fill="#76B982"/>
</svg>
